<?xml version="1.0" standalone="yes"?>

<svg version="1.1" viewBox="0.0 0.0 960.0 720.0" fill="none" stroke="none" stroke-linecap="square" stroke-miterlimit="10" xmlns="http://www.w3.org/2000/svg" xmlns:xlink="http://www.w3.org/1999/xlink"><clipPath id="p.0"><path d="m0 0l960.0 0l0 720.0l-960.0 0l0 -720.0z" clip-rule="nonzero"></path></clipPath><g clip-path="url(#p.0)"><path fill="#000000" fill-opacity="0.0" d="m0 0l960.0 0l0 720.0l-960.0 0z" fill-rule="nonzero"></path><path fill="#f1c232" d="m779.7101 327.359c14.940918 137.16882 -65.153076 266.97272 -194.45319 315.13922c-129.30005 48.166565 -274.79736 2.399414 -353.23993 -111.11395c-78.442566 -113.5134 -69.80495 -265.79434 20.970535 -369.70938c90.77547 -103.91504 240.51488 -132.93588 363.539 -70.4571l-136.50433 268.7843z" fill-rule="nonzero"></path><path stroke="#b45f06" stroke-width="24.0" stroke-linejoin="round" stroke-linecap="butt" d="m779.7101 327.359c14.940918 137.16882 -65.153076 266.97272 -194.45319 315.13922c-129.30005 48.166565 -274.79736 2.399414 -353.23993 -111.11395c-78.442566 -113.5134 -69.80495 -265.79434 20.970535 -369.70938c90.77547 -103.91504 240.51488 -132.93588 363.539 -70.4571l-136.50433 268.7843z" fill-rule="nonzero"></path><path fill="#f1c232" d="m841.4697 249.4754l-292.85034 54.283447l140.22046 -262.7559z" fill-rule="nonzero"></path><path stroke="#000000" stroke-width="1.0" stroke-linejoin="round" stroke-linecap="butt" d="m841.4697 249.4754l-292.85034 54.283447l140.22046 -262.7559z" fill-rule="nonzero"></path><path fill="#980000" d="m387.61942 169.96326l0 0c0 -20.734604 16.808716 -37.543304 37.543304 -37.543304l0 0c9.957123 0 19.506409 3.9554443 26.54715 10.99617c7.0407104 7.040741 10.996155 16.590027 10.996155 26.547134l0 0c0 20.734589 -16.808685 37.543304 -37.543304 37.543304l0 0c-20.734589 0 -37.543304 -16.808716 -37.543304 -37.543304z" fill-rule="nonzero"></path><path stroke="#000000" stroke-width="1.0" stroke-linejoin="round" stroke-linecap="butt" d="m387.61942 169.96326l0 0c0 -20.734604 16.808716 -37.543304 37.543304 -37.543304l0 0c9.957123 0 19.506409 3.9554443 26.54715 10.99617c7.0407104 7.040741 10.996155 16.590027 10.996155 26.547134l0 0c0 20.734589 -16.808685 37.543304 -37.543304 37.543304l0 0c-20.734589 0 -37.543304 -16.808716 -37.543304 -37.543304z" fill-rule="nonzero"></path><path fill="#980000" d="m332.4042 496.2861l0 0c0 -24.091797 19.530243 -43.62207 43.62204 -43.62207l0 0c11.569275 0 22.664734 4.595886 30.845459 12.776611c8.180695 8.180725 12.776581 19.276154 12.776581 30.845459l0 0c0 24.091766 -19.530243 43.62204 -43.62204 43.62204l0 0c-24.091797 0 -43.62204 -19.530273 -43.62204 -43.62204z" fill-rule="nonzero"></path><path stroke="#000000" stroke-width="1.0" stroke-linejoin="round" stroke-linecap="butt" d="m332.4042 496.2861l0 0c0 -24.091797 19.530243 -43.62207 43.62204 -43.62207l0 0c11.569275 0 22.664734 4.595886 30.845459 12.776611c8.180695 8.180725 12.776581 19.276154 12.776581 30.845459l0 0c0 24.091766 -19.530243 43.62204 -43.62204 43.62204l0 0c-24.091797 0 -43.62204 -19.530273 -43.62204 -43.62204z" fill-rule="nonzero"></path><path fill="#980000" d="m268.34122 314.98425l0 0c0 -27.135895 21.997955 -49.13385 49.13385 -49.13385l0 0c13.031097 0 25.528503 5.1765747 34.74289 14.390961c9.214386 9.214386 14.390961 21.711792 14.390961 34.74289l0 0c0 27.135895 -21.997986 49.13385 -49.13385 49.13385l0 0c-27.135895 0 -49.13385 -21.997955 -49.13385 -49.13385z" fill-rule="nonzero"></path><path stroke="#000000" stroke-width="1.0" stroke-linejoin="round" stroke-linecap="butt" d="m268.34122 314.98425l0 0c0 -27.135895 21.997955 -49.13385 49.13385 -49.13385l0 0c13.031097 0 25.528503 5.1765747 34.74289 14.390961c9.214386 9.214386 14.390961 21.711792 14.390961 34.74289l0 0c0 27.135895 -21.997986 49.13385 -49.13385 49.13385l0 0c-27.135895 0 -49.13385 -21.997955 -49.13385 -49.13385z" fill-rule="nonzero"></path><path fill="#980000" d="m609.5827 456.53543l0 0c0 -22.874146 18.543152 -41.417328 41.417297 -41.417328l0 0c10.984558 0 21.519226 4.363617 29.286499 12.130859c7.767212 7.7672424 12.130798 18.30191 12.130798 29.286469l0 0c0 22.874146 -18.543152 41.417328 -41.417297 41.417328l0 0c-22.874146 0 -41.417297 -18.543182 -41.417297 -41.417328z" fill-rule="nonzero"></path><path stroke="#000000" stroke-width="1.0" stroke-linejoin="round" stroke-linecap="butt" d="m609.5827 456.53543l0 0c0 -22.874146 18.543152 -41.417328 41.417297 -41.417328l0 0c10.984558 0 21.519226 4.363617 29.286499 12.130859c7.767212 7.7672424 12.130798 18.30191 12.130798 29.286469l0 0c0 22.874146 -18.543152 41.417328 -41.417297 41.417328l0 0c-22.874146 0 -41.417297 -18.543182 -41.417297 -41.417328z" fill-rule="nonzero"></path><path fill="#980000" d="m477.0656 580.76904l0 0c0 -17.69049 14.341003 -32.031494 32.031494 -32.031494l0 0c8.4953 0 16.64264 3.3746948 22.64972 9.381775c6.007019 6.00708 9.381775 14.154419 9.381775 22.64972l0 0c0 17.69049 -14.341003 32.031494 -32.031494 32.031494l0 0c-17.69049 0 -32.031494 -14.341003 -32.031494 -32.031494z" fill-rule="nonzero"></path><path stroke="#000000" stroke-width="1.0" stroke-linejoin="round" stroke-linecap="butt" d="m477.0656 580.76904l0 0c0 -17.69049 14.341003 -32.031494 32.031494 -32.031494l0 0c8.4953 0 16.64264 3.3746948 22.64972 9.381775c6.007019 6.00708 9.381775 14.154419 9.381775 22.64972l0 0c0 17.69049 -14.341003 32.031494 -32.031494 32.031494l0 0c-17.69049 0 -32.031494 -14.341003 -32.031494 -32.031494z" fill-rule="nonzero"></path><path fill="#b45f06" d="m841.3334 248.30717l-31.227661 7.350174l-138.33203 -186.16492l16.079407 -27.736435z" fill-rule="nonzero"></path><path stroke="#000000" stroke-width="1.0" stroke-linejoin="round" stroke-linecap="butt" d="m841.3334 248.30717l-31.227661 7.350174l-138.33203 -186.16492l16.079407 -27.736435z" fill-rule="nonzero"></path><path fill="#980000" d="m655.96326 146.2231l0 0c0 -10.062897 8.157593 -18.220474 18.220459 -18.220474l0 0c4.8323975 0 9.466858 1.9196472 12.88385 5.3366547c3.4169922 3.4169922 5.336609 8.051453 5.336609 12.88382l0 0c0 10.062881 -8.157532 18.220474 -18.220459 18.220474l0 0c-10.062866 0 -18.220459 -8.157593 -18.220459 -18.220474z" fill-rule="nonzero"></path><path stroke="#000000" stroke-width="1.0" stroke-linejoin="round" stroke-linecap="butt" d="m655.96326 146.2231l0 0c0 -10.062897 8.157593 -18.220474 18.220459 -18.220474l0 0c4.8323975 0 9.466858 1.9196472 12.88385 5.3366547c3.4169922 3.4169922 5.336609 8.051453 5.336609 12.88382l0 0c0 10.062881 -8.157532 18.220474 -18.220459 18.220474l0 0c-10.062866 0 -18.220459 -8.157593 -18.220459 -18.220474z" fill-rule="nonzero"></path><path fill="#980000" d="m622.09973 242.29396l0 0c0 -19.212555 15.574829 -34.7874 34.787415 -34.7874l0 0c9.226196 0 18.074524 3.6650848 24.598389 10.188995c6.523926 6.5238953 10.189026 15.372208 10.189026 24.598404l0 0c0 19.21254 -15.57489 34.7874 -34.787415 34.7874l0 0c-19.212585 0 -34.787415 -15.57486 -34.787415 -34.7874z" fill-rule="nonzero"></path><path stroke="#000000" stroke-width="1.0" stroke-linejoin="round" stroke-linecap="butt" d="m622.09973 242.29396l0 0c0 -19.212555 15.574829 -34.7874 34.787415 -34.7874l0 0c9.226196 0 18.074524 3.6650848 24.598389 10.188995c6.523926 6.5238953 10.189026 15.372208 10.189026 24.598404l0 0c0 19.21254 -15.57489 34.7874 -34.787415 34.7874l0 0c-19.212585 0 -34.787415 -15.57486 -34.787415 -34.7874z" fill-rule="nonzero"></path><path fill="#980000" d="m446.14697 426.1601l0 0c0 -20.734589 16.808716 -37.543304 37.543304 -37.543304l0 0c9.957123 0 19.506409 3.9554443 26.54715 10.996185c7.0407104 7.040741 10.996155 16.590027 10.996155 26.54712l0 0c0 20.73462 -16.808685 37.543304 -37.543304 37.543304l0 0c-20.734589 0 -37.543304 -16.808685 -37.543304 -37.543304z" fill-rule="nonzero"></path><path stroke="#000000" stroke-width="1.0" stroke-linejoin="round" stroke-linecap="butt" d="m446.14697 426.1601l0 0c0 -20.734589 16.808716 -37.543304 37.543304 -37.543304l0 0c9.957123 0 19.506409 3.9554443 26.54715 10.996185c7.0407104 7.040741 10.996155 16.590027 10.996155 26.54712l0 0c0 20.73462 -16.808685 37.543304 -37.543304 37.543304l0 0c-20.734589 0 -37.543304 -16.808685 -37.543304 -37.543304z" fill-rule="nonzero"></path><path fill="#980000" d="m268.34122 203.10236l0 0c0 -17.690506 14.340973 -32.031494 32.031494 -32.031494l0 0c8.49527 0 16.642609 3.3747406 22.649689 9.381805c6.0070496 6.00708 9.381805 14.154419 9.381805 22.649689l0 0c0 17.690506 -14.341003 32.03151 -32.031494 32.03151l0 0c-17.690521 0 -32.031494 -14.341003 -32.031494 -32.03151z" fill-rule="nonzero"></path><path stroke="#000000" stroke-width="1.0" stroke-linejoin="round" stroke-linecap="butt" d="m268.34122 203.10236l0 0c0 -17.690506 14.340973 -32.031494 32.031494 -32.031494l0 0c8.49527 0 16.642609 3.3747406 22.649689 9.381805c6.0070496 6.00708 9.381805 14.154419 9.381805 22.649689l0 0c0 17.690506 -14.341003 32.03151 -32.031494 32.03151l0 0c-17.690521 0 -32.031494 -14.341003 -32.031494 -32.03151z" fill-rule="nonzero"></path><path fill="#980000" d="m245.15224 420.6483l0 0c0 -17.69049 14.340988 -32.031494 32.03148 -32.031494l0 0c8.4953 0 16.64264 3.3747559 22.649689 9.381805c6.00708 6.00708 9.381805 14.154419 9.381805 22.649689l0 0c0 17.690521 -14.340973 32.031494 -32.031494 32.031494l0 0c-17.69049 0 -32.03148 -14.340973 -32.03148 -32.031494z" fill-rule="nonzero"></path><path stroke="#000000" stroke-width="1.0" stroke-linejoin="round" stroke-linecap="butt" d="m245.15224 420.6483l0 0c0 -17.69049 14.340988 -32.031494 32.03148 -32.031494l0 0c8.4953 0 16.64264 3.3747559 22.649689 9.381805c6.00708 6.00708 9.381805 14.154419 9.381805 22.649689l0 0c0 17.690521 -14.340973 32.031494 -32.031494 32.031494l0 0c-17.69049 0 -32.03148 -14.340973 -32.03148 -32.031494z" fill-rule="nonzero"></path><path fill="#980000" d="m385.40945 276.53543l0 0c0 -22.87416 18.543152 -41.417328 41.417328 -41.417328l0 0c10.984558 0 21.519196 4.3636017 29.286469 12.130859c7.7672424 7.7672577 12.130829 18.30191 12.130829 29.286469l0 0c0 22.874146 -18.543152 41.417328 -41.417297 41.417328l0 0c-22.874176 0 -41.417328 -18.543182 -41.417328 -41.417328z" fill-rule="nonzero"></path><path stroke="#000000" stroke-width="1.0" stroke-linejoin="round" stroke-linecap="butt" d="m385.40945 276.53543l0 0c0 -22.87416 18.543152 -41.417328 41.417328 -41.417328l0 0c10.984558 0 21.519196 4.3636017 29.286469 12.130859c7.7672424 7.7672577 12.130829 18.30191 12.130829 29.286469l0 0c0 22.874146 -18.543152 41.417328 -41.417297 41.417328l0 0c-22.874176 0 -41.417328 -18.543182 -41.417328 -41.417328z" fill-rule="nonzero"></path></g></svg>

